<?xml version="1.0" encoding="UTF-8" standalone="no"?>
<svg width="51px" height="39px" viewBox="0 0 51 39" version="1.1" xmlns="http://www.w3.org/2000/svg" xmlns:xlink="http://www.w3.org/1999/xlink">
    <!-- Generator: Sketch 3.7.1 (28215) - http://www.bohemiancoding.com/sketch -->
    <title>EmailIcon</title>
    <desc>Created with Sketch.</desc>
    <defs></defs>
    <g id="Page-1" stroke="none" stroke-width="1" fill="none" fill-rule="evenodd">
        <g id="LANDING-PAGE" transform="translate(-476.000000, -3222.000000)" fill="#FFFFFF">
            <g id="Group-6" transform="translate(476.000000, 3222.000000)">
                <path d="M50.9795827,0.798676526 C50.9723766,0.735022607 50.9627685,0.674971741 50.9411502,0.616121891 C50.9231349,0.560875094 50.8979135,0.512834401 50.8690891,0.46359269 C50.8414657,0.413149962 50.8126413,0.367511304 50.7754098,0.323073662 C50.7357762,0.273831952 50.6865345,0.235399397 50.6348907,0.195765825 C50.6084683,0.174147513 50.5892521,0.145323097 50.5592266,0.127307837 C50.5424124,0.117699699 50.5231961,0.117699699 50.5051809,0.109292577 C50.4511351,0.0792671439 50.3922852,0.0636539186 50.3322344,0.046839676 C50.2733845,0.0312264506 50.2181377,0.0168142427 50.1580869,0.0120101733 C50.1388706,0.010809156 50.1208553,0 50.099237,0 L0.900762999,0 C0.879144687,0 0.861129427,0.010809156 0.839511115,0.0132111907 C0.783063301,0.0168142427 0.729017521,0.0312264506 0.672569706,0.0456386586 C0.611317822,0.0636539186 0.551266956,0.0792671439 0.493618124,0.109292577 C0.478004898,0.117699699 0.458788621,0.117699699 0.441974378,0.127307837 C0.410747928,0.145323097 0.393933685,0.174147513 0.365109269,0.195765825 C0.313465524,0.235399397 0.26542483,0.273831952 0.225791258,0.323073662 C0.187358704,0.367511304 0.158534288,0.413149962 0.130910889,0.462391673 C0.102086473,0.512834401 0.0768651093,0.560875094 0.057648832,0.616121891 C0.039633572,0.674971741 0.0300254333,0.735022607 0.0228193293,0.798676526 C0.01801526,0.833506029 1.13686838e-13,0.864732479 1.13686838e-13,0.900762999 L1.13686838e-13,37.6158628 C1.13686838e-13,38.113084 0.404742841,38.5166258 0.900762999,38.5166258 L50.099237,38.5166258 C50.5964582,38.5166258 51,38.113084 51,37.6158628 L51,0.900762999 C51,0.864732479 50.9843868,0.833506029 50.9795827,0.798676526 L50.9795827,0.798676526 Z M48.4418331,1.801526 C45.7707705,5.75407404 37.2171251,17.2225885 25.5,21.270017 C13.7828749,17.2225885 5.23043048,5.75407404 2.55816692,1.801526 L48.4418331,1.801526 L48.4418331,1.801526 Z M1.80272702,3.9009043 C4.29363696,7.44630746 9.43399115,13.9450122 16.5151893,18.7130511 C9.30668331,24.3506264 4.08586096,31.393392 1.80272702,34.7790599 L1.80272702,3.9009043 L1.80272702,3.9009043 Z M2.68787679,36.7150998 C4.48700075,33.955162 10.1702148,25.8074604 18.1221505,19.7411219 C20.3248163,21.0838593 22.6944235,22.24164 25.2141579,23.0835531 C25.2153589,23.0847541 25.2177609,23.0835531 25.221364,23.0847541 C25.3102393,23.1135786 25.4039186,23.1291918 25.5,23.1291918 C25.5936794,23.1291918 25.6873587,23.1135786 25.777435,23.0847541 C25.778636,23.0835531 25.7810381,23.0847541 25.7834401,23.0835531 C28.3043755,22.24164 30.6691786,21.0850603 32.8706434,19.7447249 C40.8225791,25.8110635 46.5045921,33.956363 48.3049171,36.7150998 L2.68787679,36.7150998 L2.68787679,36.7150998 Z M49.197273,34.7934721 C46.9213451,31.4138093 41.6969197,24.3626366 34.4788056,18.7166541 C41.5636068,13.9486153 46.7075641,7.44630746 49.197273,3.9009043 L49.197273,34.7934721 L49.197273,34.7934721 Z" id="EmailIcon"></path>
            </g>
        </g>
    </g>
</svg>