<?xml version="1.0" encoding="UTF-8" standalone="no"?>
<svg width="190px" height="190px" viewBox="0 0 190 190" version="1.1" xmlns="http://www.w3.org/2000/svg" xmlns:xlink="http://www.w3.org/1999/xlink">
    <!-- Generator: Sketch 3.7.1 (28215) - http://www.bohemiancoding.com/sketch -->
    <title>imac</title>
    <desc>Created with Sketch.</desc>
    <defs>
        <circle id="path-1" cx="95" cy="95" r="95"></circle>
    </defs>
    <g id="Page-1" stroke="none" stroke-width="1" fill="none" fill-rule="evenodd">
        <g id="LANDING-PAGE" transform="translate(-625.000000, -1004.000000)">
            <g id="imac" transform="translate(625.000000, 1004.000000)">
                <g id="Group-2">
                    <mask id="mask-2" fill="white">
                        <use xlink:href="#path-1"></use>
                    </mask>
                    <use id="Mask" fill="#FFE5E4" xlink:href="#path-1"></use>
                </g>
                <g id="macbook" transform="translate(12.000000, 49.000000)">
                    <g id="iMac">
                        <g id="stand" transform="translate(58.164949, 116.310009)">
                            <g id="Group" transform="translate(0.558528, 0.000000)" fill="#FFB2AE">
                                <path d="M25.1337793,0 L25.1337793,14.209803 L0.00555942363,14.209803 C0.00555942363,14.209803 3.23439343,12.9182061 5.21065682,10.6527335 C7.18692017,8.38726079 7.18692017,0 7.18692017,0 L25.1337793,0 Z" id="Rectangle-6"></path>
                                <path d="M49.1560611,0 L49.1560611,14.209803 L23.458194,14.209803 C23.458194,14.209803 26.7602244,12.9182061 28.781289,10.6527335 C30.8023535,8.38726079 30.8023535,0 30.8023535,0 L49.1560611,0 Z" id="Rectangle-6" transform="translate(36.307128, 7.104902) scale(-1, 1) translate(-36.307128, -7.104902) "></path>
                            </g>
                            <rect id="Rectangle-6" fill="#FF8C8C" x="0.256009656" y="13.9830508" width="49.7291561" height="1.6779661" rx="40"></rect>
                            <rect id="Rectangle-17" fill="#FF8C8C" x="7.79301489" y="0" width="34.6551456" height="2.23728814"></rect>
                        </g>
                        <rect id="screen-border" fill="#FF7871" x="0.558528428" y="0.530348145" width="166.441472" height="100.677966" rx="10"></rect>
                        <path d="M0.558528428,100.648992 L0.558528428,108.479501 C0.558528428,112.804171 4.07329742,116.310009 8.3908557,116.310009 L159.167673,116.310009 C163.493348,116.310009 167,112.795371 167,108.479501 L167,100.648992 L0.558528428,100.648992 Z" id="Rectangle-17" fill="#FFAEAA"></path>
                        <rect id="screen" fill="#95524F" x="8.37792642" y="7.83050847" width="150.802676" height="85.5762712"></rect>
                        <polygon id="glare" fill="#934F4C" points="159.180602 7.83050847 159.180602 93.4067797 53.6187291 7.83050847"></polygon>
                        <path d="M83.8572569,5.7569858 C84.4741904,5.7569858 84.9743138,5.25615182 84.9743138,4.63834173 C84.9743138,4.02053164 84.4741904,3.51969766 83.8572569,3.51969766 C83.2403234,3.51969766 82.7402001,4.02053164 82.7402001,4.63834173 C82.7402001,5.25615182 83.2403234,5.7569858 83.8572569,5.7569858 Z" id="camera" fill="#9E9E9E"></path>
                    </g>
                    <path d="M18.5,14 L34.5,14" id="Line" stroke="#B8E986" stroke-width="2" stroke-linecap="round"></path>
                    <path d="M18.5,14 L34.5,14" id="Line" stroke="#B8E986" stroke-width="2" stroke-linecap="round"></path>
                    <path d="M27.5,20 L40,20" id="Line" stroke="#B8E986" stroke-width="2" stroke-linecap="round"></path>
                    <path d="M27.5,24 L40,24" id="Line" stroke="#B8E986" stroke-width="2" stroke-linecap="round"></path>
                    <path d="M18.5,32 L31,32" id="Line" stroke="#B8E986" stroke-width="2" stroke-linecap="round"></path>
                    <path d="M18.5,54 L31,54" id="Line" stroke="#B8E986" stroke-width="2" stroke-linecap="round"></path>
                    <path d="M54.5,45 L60,45" id="Line" stroke="#B8E986" stroke-width="2" stroke-linecap="round"></path>
                    <path d="M43.5,20 L52,20" id="Line" stroke="#FFFFFF" stroke-width="2" stroke-linecap="round"></path>
                    <path d="M43.5,20 L52,20" id="Line" stroke="#FFFFFF" stroke-width="2" stroke-linecap="round"></path>
                    <path d="M55.5,20 L64,20" id="Line" stroke="#FFFFFF" stroke-width="2" stroke-linecap="round"></path>
                    <path d="M60.5,24 L78,24" id="Line" stroke="#FFFFFF" stroke-width="2" stroke-linecap="round"></path>
                    <path d="M35.5,28 L53,28" id="Line" stroke="#FFFFFF" stroke-width="2" stroke-linecap="round"></path>
                    <path d="M40.5,41 L58,41" id="Line" stroke="#FFFFFF" stroke-width="2" stroke-linecap="round"></path>
                    <path d="M62.5,41 L69,41" id="Line" stroke="#FFFFFF" stroke-width="2" stroke-linecap="round"></path>
                    <path d="M72.5,41 L76,41" id="Line" stroke="#FFFFFF" stroke-width="2" stroke-linecap="round"></path>
                    <path d="M18.5,37 L36,37" id="Line" stroke="#4990E2" stroke-width="2" stroke-linecap="round"></path>
                    <path d="M18.5,49 L36,49" id="Line" stroke="#4990E2" stroke-width="2" stroke-linecap="round"></path>
                    <path d="M58.5,28 L67,28" id="Line" stroke="#FFFFFF" stroke-width="2" stroke-linecap="round"></path>
                    <path d="M40.5,37 L49,37" id="Line" stroke="#FFFFFF" stroke-width="2" stroke-linecap="round"></path>
                    <path d="M91.5,20 L100,20" id="Line" stroke="#E2433B" stroke-width="2" stroke-linecap="round"></path>
                    <path d="M46.5,24 L55,24" id="Line" stroke="#E2433B" stroke-width="2" stroke-linecap="round"></path>
                    <path d="M27.5,41 L37,41" id="Line" stroke="#E2433B" stroke-width="2" stroke-linecap="round"></path>
                    <path d="M40.5,45 L51,45" id="Line" stroke="#FFFFFF" stroke-width="2" stroke-linecap="round"></path>
                    <path d="M40.5,49 L46,49" id="Line" stroke="#FFFFFF" stroke-width="2" stroke-linecap="round"></path>
                    <path d="M27.5,45 L37,45" id="Line" stroke="#E2433B" stroke-width="2" stroke-linecap="round"></path>
                    <path d="M50.5,49 L60,49" id="Line" stroke="#E2433B" stroke-width="2" stroke-linecap="round"></path>
                    <path d="M67.5,20 L88,20" id="Line" stroke="#FFFFFF" stroke-width="2" stroke-linecap="round"></path>
                </g>
            </g>
        </g>
    </g>
</svg>