<?xml version="1.0" encoding="UTF-8" standalone="no"?>
<svg width="190px" height="198px" viewBox="0 0 190 198" version="1.1" xmlns="http://www.w3.org/2000/svg" xmlns:xlink="http://www.w3.org/1999/xlink">
    <!-- Generator: Sketch 3.7.1 (28215) - http://www.bohemiancoding.com/sketch -->
    <title>money</title>
    <desc>Created with Sketch.</desc>
    <defs>
        <circle id="path-1" cx="95" cy="95" r="95"></circle>
        <path d="M64.5719787,43.6515415 C80.4701137,48.8207001 101.803004,70.3670565 101.803004,98.6743007 C101.803004,118.95273 104.124675,137.002157 94.7231292,146.945701 C90.4171287,151.499942 87.841309,153.676869 74.0245284,154.789672 C69.5338647,155.15135 59.0041492,152.818595 53.3030051,152.818595 C44.575006,152.818595 36.961129,153.823478 30.9834689,152.818595 C-5.18724138,146.73807 4.80300432,126.637787 4.80300432,98.6743007 C4.80300432,70.3723909 32.9573727,48.828821 50.6498789,43.6544656 C45.3785118,39.6976504 39.0675791,33.2626968 37.2791197,26.3391191 C34.9992813,17.5132897 26.9802972,4.34178837 41.2389585,1.73449875 C43.5380839,1.31408861 46.3012105,4.0076677 49.4625199,4.99318192 C51.8569992,5.7396427 55.863183,1.498012 59.5894425,1.73449875 C61.6719036,1.86666198 65.4206232,5.5606959 67.2003186,5.74745938 C67.4496807,5.77362776 67.6960578,5.80009427 67.9394797,5.82685705 C69.902013,6.04262583 78.0513286,4.18377098 79.6452839,4.43707869 C81.7944661,4.77862177 84.3123674,9.79177851 85.7597782,10.2296672 C90.3783098,11.6269225 90.6840886,11.769243 90.1094525,13.2504344 C88.9094138,16.3436732 80.8190598,21.1346066 78.751226,26.3391191 C76.3234565,32.4495504 69.7609483,39.3884904 64.5719787,43.6515415 Z" id="path-3"></path>
        <mask id="mask-4" maskContentUnits="userSpaceOnUse" maskUnits="objectBoundingBox" x="-1" y="-1" width="100.518703" height="155.137451">
            <rect x="2.53806297" y="0.690316649" width="100.518703" height="155.137451" fill="white"></rect>
            <use xlink:href="#path-3" fill="black"></use>
        </mask>
    </defs>
    <g id="Page-1" stroke="none" stroke-width="1" fill="none" fill-rule="evenodd">
        <g id="LANDING-PAGE" transform="translate(-1038.000000, -1004.000000)">
            <g id="money" transform="translate(1038.000000, 1004.000000)">
                <g id="Group-2">
                    <mask id="mask-2" fill="white">
                        <use xlink:href="#path-1"></use>
                    </mask>
                    <use id="Mask" fill="#FFE5E4" xlink:href="#path-1"></use>
                </g>
                <g id="Group-10" transform="translate(60.000000, 172.000000)" stroke="#E2433B">
                    <path d="M17.8199674,4 C16.9860808,4.57056008 13.3541242,5 9,5 C4.64587576,5 1.01391921,4.57056008 0.180032608,4 L0,4 L0,1.5 C0,1.5 6.39916075,2.20297921 9.23610687,2.20297921 C12.3991608,2.20297921 18,1.5 18,1.5 L18,4 L17.8199674,4 Z" id="Combined-Shape" stroke-linejoin="round" fill="#D1972C"></path>
                    <ellipse id="Oval-74" fill="#F5C66F" cx="9" cy="1.25" rx="9" ry="1.25"></ellipse>
                </g>
                <g id="Group-10" transform="translate(71.000000, 175.000000)" stroke="#E2433B">
                    <path d="M17.8199674,4 C16.9860808,4.57056008 13.3541242,5 9,5 C4.64587576,5 1.01391921,4.57056008 0.180032608,4 L0,4 L0,1.5 C0,1.5 6.39916075,2.20297921 9.23610687,2.20297921 C12.3991608,2.20297921 18,1.5 18,1.5 L18,4 L17.8199674,4 Z" id="Combined-Shape" stroke-linejoin="round" fill="#D1972C"></path>
                    <ellipse id="Oval-74" fill="#F5C66F" cx="9" cy="1.25" rx="9" ry="1.25"></ellipse>
                </g>
                <g id="Group-10" transform="translate(49.000000, 168.000000)" stroke="#E2433B">
                    <path d="M10.8899801,2.4 C10.3803827,2.74233605 8.1608537,3 5.5,3 C2.8391463,3 0.619617294,2.74233605 0.110019927,2.4 L0,2.4 L0,0.9 C0,0.9 3.91059824,1.32178752 5.64428753,1.32178752 C7.5772649,1.32178752 11,0.9 11,0.9 L11,2.4 L10.8899801,2.4 Z" id="Combined-Shape" stroke-linejoin="round" fill="#D1972C"></path>
                    <ellipse id="Oval-74" fill="#F5C66F" cx="5.5" cy="0.75" rx="5.5" ry="0.75"></ellipse>
                </g>
                <g id="Group-10" transform="translate(137.000000, 169.000000)" stroke="#E2433B">
                    <path d="M10.8899801,2.4 C10.3803827,2.74233605 8.1608537,3 5.5,3 C2.8391463,3 0.619617294,2.74233605 0.110019927,2.4 L0,2.4 L0,0.9 C0,0.9 3.91059824,1.32178752 5.64428753,1.32178752 C7.5772649,1.32178752 11,0.9 11,0.9 L11,2.4 L10.8899801,2.4 Z" id="Combined-Shape" stroke-linejoin="round" fill="#D1972C"></path>
                    <ellipse id="Oval-74" fill="#F5C66F" cx="5.5" cy="0.75" rx="5.5" ry="0.75"></ellipse>
                </g>
                <g id="Group-10" transform="translate(131.000000, 166.000000)" stroke="#E2433B">
                    <path d="M6.92998732,1.6 C6.60569809,1.82822403 5.19327054,2 3.5,2 C1.80672946,2 0.394301915,1.82822403 0.0700126809,1.6 L0,1.6 L0,0.6 C0,0.6 2.48856251,0.881191683 3.59181934,0.881191683 C4.82189585,0.881191683 7,0.6 7,0.6 L7,1.6 L6.92998732,1.6 Z" id="Combined-Shape" stroke-linejoin="round" fill="#D1972C"></path>
                    <ellipse id="Oval-74" fill="#F5C66F" cx="3.5" cy="0.5" rx="3.5" ry="0.5"></ellipse>
                </g>
                <g id="Group-10" transform="translate(89.000000, 173.000000)" stroke="#E2433B">
                    <path d="M13.8599746,3.2 C13.2113962,3.65644806 10.3865411,4 7,4 C3.61345893,4 0.788603829,3.65644806 0.140025362,3.2 L0,3.2 L0,1.2 C0,1.2 4.97712503,1.76238337 7.18363868,1.76238337 C9.6437917,1.76238337 14,1.2 14,1.2 L14,3.2 L13.8599746,3.2 Z" id="Combined-Shape" stroke-linejoin="round" fill="#D1972C"></path>
                    <ellipse id="Oval-74" fill="#F5C66F" cx="7" cy="1" rx="7" ry="1"></ellipse>
                </g>
                <g id="Group-10" transform="translate(112.000000, 174.000000)" stroke="#E2433B">
                    <path d="M18.8099656,4 C17.9297519,4.57056008 14.09602,5 9.5,5 C4.90397997,5 1.07024805,4.57056008 0.19003442,4 L0,4 L0,1.5 C0,1.5 6.75466968,2.20297921 9.74922392,2.20297921 C13.088003,2.20297921 19,1.5 19,1.5 L19,4 L18.8099656,4 Z" id="Combined-Shape" stroke-linejoin="round" fill="#D1972C"></path>
                    <ellipse id="Oval-74" fill="#F5C66F" cx="9.5" cy="1.25" rx="9.5" ry="1.25"></ellipse>
                </g>
                <g id="Group-10" transform="translate(131.000000, 171.000000)" stroke="#E2433B">
                    <path d="M11.8799783,2.4 C11.3240539,2.74233605 8.90274949,3 6,3 C3.09725051,3 0.675946139,2.74233605 0.120021739,2.4 L0,2.4 L0,0.9 C0,0.9 4.26610717,1.32178752 6.15740458,1.32178752 C8.26610717,1.32178752 12,0.9 12,0.9 L12,2.4 L11.8799783,2.4 Z" id="Combined-Shape" stroke-linejoin="round" fill="#D1972C"></path>
                    <ellipse id="Oval-74" fill="#F5C66F" cx="6" cy="0.75" rx="6" ry="0.75"></ellipse>
                </g>
                <g id="Group-10" transform="translate(74.000000, 183.000000)" stroke="#E2433B">
                    <path d="M23.7599565,5.6 C22.6481077,6.39878411 17.805499,7 12,7 C6.19450102,7 1.35189228,6.39878411 0.240043477,5.6 L0,5.6 L0,2.1 C0,2.1 8.53221433,3.08417089 12.3148092,3.08417089 C16.5322143,3.08417089 24,2.1 24,2.1 L24,5.6 L23.7599565,5.6 Z" id="Combined-Shape" stroke-linejoin="round" fill="#D1972C"></path>
                    <ellipse id="Oval-74" fill="#F5C66F" cx="12" cy="1.75" rx="12" ry="1.75"></ellipse>
                </g>
                <g id="Group-10" transform="translate(53.000000, 181.000000)" stroke="#E2433B">
                    <path d="M20.789962,4.8 C19.8170943,5.4846721 15.5798116,6 10.5,6 C5.42018839,6 1.18290574,5.4846721 0.210038043,4.8 L0,4.8 L0,1.8 C0,1.8 7.46568754,2.64357505 10.775458,2.64357505 C14.4656875,2.64357505 21,1.8 21,1.8 L21,4.8 L20.789962,4.8 Z" id="Combined-Shape" stroke-linejoin="round" fill="#D1972C"></path>
                    <ellipse id="Oval-74" fill="#F5C66F" cx="10.5" cy="1.5" rx="10.5" ry="1.5"></ellipse>
                </g>
                <g id="Group-10" transform="translate(96.000000, 177.000000)" stroke="#E2433B">
                    <path d="M20.789962,4.8 C19.8170943,5.4846721 15.5798116,6 10.5,6 C5.42018839,6 1.18290574,5.4846721 0.210038043,4.8 L0,4.8 L0,1.8 C0,1.8 7.46568754,2.64357505 10.775458,2.64357505 C14.4656875,2.64357505 21,1.8 21,1.8 L21,4.8 L20.789962,4.8 Z" id="Combined-Shape" stroke-linejoin="round" fill="#D1972C"></path>
                    <ellipse id="Oval-74" fill="#F5C66F" cx="10.5" cy="1.5" rx="10.5" ry="1.5"></ellipse>
                </g>
                <g id="Group-9" transform="translate(43.000000, 17.000000)">
                    <g id="Group-8">
                        <path d="M56.045838,43.9947395 C58.8259835,43.9947395 72.9511394,32.2903874 76.7818912,22.6488024 C78.849725,17.4442899 86.9834216,14.7747068 88.1834602,11.681468 C88.7580964,10.2002766 89.4289335,6.46138899 84.8104019,5.06413364 C83.3629911,4.62624499 78.3528222,5.06624258 76.20364,4.7246995 C75.0717367,4.54482004 69.7085495,0.233221292 67.4787369,0.233221292 C65.2489243,0.233221292 58.1282985,3.10893363 56.0458374,2.9767704 C52.9928435,2.78301239 49.3146221,0.500491226 47.0548096,0.233221243 C44.7949971,-0.0340487387 40.9548312,1.88674487 38.6557057,2.30715502 C24.3970445,4.91444463 33.0299464,13.8229731 35.3097848,22.6488024 C38.2356741,33.9756575 53.2656925,43.9947395 56.045838,43.9947395 Z" id="Oval-69" fill="#B1251E"></path>
                        <g id="Combined-Shape" transform="translate(52.797414, 78.259042) rotate(-2.000000) translate(-52.797414, -78.259042) ">
                            <use fill="#FFD5D3" fill-rule="evenodd" xlink:href="#path-3"></use>
                            <use stroke="#E2433B" mask="url(#mask-4)" stroke-width="2" xlink:href="#path-3"></use>
                        </g>
                        <path d="M81.6136513,75.4526419 C85.9007645,92.8445198 88.2208053,111.288063 85.6957618,125.432105 C82.5485708,143.06111 73.6926863,154.345133 75.6096798,154.189979 C89.1140565,153.09699 91.8508424,151.095274 96.0594823,146.622121 C100.944071,141.430537 102.945122,134.657645 103.334687,126.036796 C103.677978,118.439955 102.671292,109.30718 102.671292,99.9772986 C102.671292,67.9726708 74.3552471,45.1559009 62.3132406,43.1506423 C68.4470894,52.5453778 79.0099494,64.8899945 81.6136513,75.4526419 Z" id="Oval-68" fill="#FFC6C3"></path>
                        <path d="M46.5,42.5 C46.5,42.5 50.1690388,43.7647032 55.8536406,43.7647032 C61.5382423,43.7647032 66.5,42.5 66.5,42.5" id="Line" stroke="#E2433B" stroke-width="3" stroke-linecap="round"></path>
                        <path d="M45.9439306,41.0509187 C47.8579179,41.0509196 48.0334325,41.2953927 48.3526592,41.4110105 C48.7034979,41.5380775 49.216939,41.5542615 52.1455956,41.9662781 C51.5229276,36.558328 47.6746846,28.711576 46.776008,21.3426571 C45.7674884,13.0730538 47.6939987,5.53384325 46.776008,5.24032242 C43.7521626,4.27346984 41.1091857,1.63089619 38.9100337,2.04334547 C32.3750066,3.26898482 30.3751414,6.96856844 30.6766554,11.3440552 C31.0044034,16.1002408 33.9865729,21.6722118 35.1223814,26.1820543 C36.6135497,32.1028883 41.4027229,37.1512898 45.9439306,41.0509187 Z" id="Oval-69" fill="#FFC6C3"></path>
                        <path d="M57.5070748,42.2118148 C60.6337891,41.9915877 62.1998845,41.8168525 62.3121961,41.8168525 C67.0482279,36.5769942 70.2192796,27.1257219 74.6197705,20.213148 C78.8668651,13.5415389 84.4600572,9.3214759 82.7741528,8.81143522 C81.3267419,8.37354657 79.0978592,3.91009762 76.9486771,3.56855453 C75.3547218,3.31524682 67.676737,5.62932552 65.7142038,5.41355673 C65.527201,5.3929969 59.6782919,30.7543149 57.5070748,42.2118148 Z" id="Oval-69" fill="#FFC6C3"></path>
                    </g>
                    <text id="$" font-family="CoffeeAtMidnightDemo, Coffee At Midnight Demo" font-size="60" font-weight="normal" letter-spacing="2.21000004" fill="#E2433B">
                        <tspan x="42.9624681" y="119">$</tspan>
                    </text>
                </g>
                <g id="Group-10" transform="translate(118.000000, 183.000000)" stroke="#E2433B">
                    <path d="M24.7499547,5.6 C23.5917789,6.39878411 18.5473948,7 12.5,7 C6.45260522,7 1.40822112,6.39878411 0.250045289,5.6 L0,5.6 L0,2.1 C0,2.1 8.88772327,3.08417089 12.8279262,3.08417089 C17.2210566,3.08417089 25,2.1 25,2.1 L25,5.6 L24.7499547,5.6 Z" id="Combined-Shape" stroke-linejoin="round" fill="#D1972C"></path>
                    <ellipse id="Oval-74" fill="#F5C66F" cx="12.5" cy="1.75" rx="12.5" ry="1.75"></ellipse>
                </g>
                <g id="Group-10" transform="translate(91.000000, 190.000000)" stroke="#E2433B">
                    <path d="M24.7499547,5.6 C23.5917789,6.39878411 18.5473948,7 12.5,7 C6.45260522,7 1.40822112,6.39878411 0.250045289,5.6 L0,5.6 L0,2.1 C0,2.1 8.88772327,3.08417089 12.8279262,3.08417089 C17.2210566,3.08417089 25,2.1 25,2.1 L25,5.6 L24.7499547,5.6 Z" id="Combined-Shape" stroke-linejoin="round" fill="#D1972C"></path>
                    <ellipse id="Oval-74" fill="#F5C66F" cx="12.5" cy="1.75" rx="12.5" ry="1.75"></ellipse>
                </g>
            </g>
        </g>
    </g>
</svg>