<?xml version="1.0" encoding="UTF-8" standalone="no"?>
<svg width="179px" height="52px" viewBox="0 0 179 52" version="1.1" xmlns="http://www.w3.org/2000/svg" xmlns:xlink="http://www.w3.org/1999/xlink">
    <!-- Generator: Sketch 3.7.1 (28215) - http://www.bohemiancoding.com/sketch -->
    <title>PALogo</title>
    <desc>Created with Sketch.</desc>
    <defs></defs>
    <g id="Page-1" stroke="none" stroke-width="1" fill="none" fill-rule="evenodd">
        <g id="LANDING-PAGE" transform="translate(-20.000000, -17.000000)">
            <g id="PALogo" transform="translate(110.500000, 43.000000) scale(-1, 1) translate(-110.500000, -43.000000) translate(20.000000, 17.000000)">
                <g id="penn-apps-accel-logo-1">
                    <path d="M138.872113,7.36666667 C138.548967,3.24698333 135.104097,0 130.902065,0 L32.9099606,0 C18.6818498,0 5.10244841,11.238997 2.59768725,25.1030024 C2.59768725,25.1030024 2.59583262,6.27698485 2.59583262,25.7833333 C2.59583262,45.2896818 2.59753648,26.4355339 2.59753648,26.4355339 C3.68258732,40.6152547 18.6737155,51.5666667 32.9099606,51.5666667 L130.902065,51.5666667 C135.107322,51.5666667 138.548617,48.3231407 138.87204,44.2016681 L136.3347,44.2016681 L136.3347,44.1985537 C134.380191,44.1183956 132.820144,42.5009997 132.820144,40.5175007 C132.820144,38.5340017 134.380191,36.9166058 136.3347,36.8364477 L136.3347,36.8333333 L138.896882,36.8333333 L138.896882,29.4683347 L129.823909,29.4683347 L129.823909,29.4652203 C127.8694,29.3850622 126.309353,27.7676664 126.309353,25.7841674 C126.309353,23.8006683 127.8694,22.1832725 129.823909,22.1031144 L129.823909,22.1 L138.896882,22.1 L138.896882,14.7350014 L129.823909,14.7350014 L129.823909,14.731887 C127.8694,14.6517289 126.309353,13.0343331 126.309353,11.050834 C126.309353,9.06733499 127.8694,7.44993918 129.823909,7.36978105 L129.823909,7.36666667 L138.872113,7.36666667 Z" id="Combined-Shape" fill="#032B43"></path>
                    <path d="M24.0157087,12.7568815 C23.9840561,12.701802 23.9568243,12.6613751 23.9361352,12.6177705 C23.7147442,12.1527726 23.4926459,11.6879513 23.2746147,11.2215411 C23.1998157,11.0617753 23.1290837,10.8997146 23.0671933,10.7348292 C22.9374001,10.3904059 23.0077784,10.1363695 23.3000782,9.91817005 C24.6547718,8.90714391 26.1694965,8.48945788 27.8488498,8.73555016 C29.1964702,8.93274174 30.3080228,9.55821156 31.1138365,10.6654502 C31.8131986,11.6261634 32.1716327,12.7166311 32.2271573,13.9018991 C32.2683587,14.7884668 32.0948886,15.6421986 31.7907412,16.472098 C31.4876548,17.2989963 31.051946,18.0570453 30.567609,18.7882606 C29.9706314,19.6889513 29.385855,20.5963503 28.8642069,21.5432936 C28.4893275,22.2238429 28.1268263,22.9089822 27.8539778,23.6386087 C27.6447881,24.1973476 27.6076538,24.763501 27.7374469,25.343954 C28.0748383,26.8559915 29.4751541,27.7054865 30.9557506,27.2908016 C31.4372583,27.1559275 31.8743817,26.923252 32.2766697,26.6319663 C32.7456225,26.2923096 33.2018436,25.9348226 33.6640768,25.5854563 C33.7247295,25.5395567 33.7873273,25.4959521 33.8651324,25.4396369 C34.2944753,26.33256 34.7144463,27.2065936 35.146088,28.1046362 C34.3199388,28.5698106 33.5151861,29.0238632 32.7093724,29.4763269 C32.6480124,29.5107516 32.581878,29.5372321 32.5173351,29.5656546 C31.4519352,30.035772 30.3412668,30.2320809 29.1865677,30.0454815 C27.6486783,29.7969177 26.4372169,29.0122117 25.6416593,27.6747691 C24.6446925,25.9985524 24.4729907,24.1975241 24.9978218,22.32747 C25.1962249,21.6209698 25.550592,20.9842016 25.938203,20.3679117 C26.7014007,19.154751 27.460885,17.9400014 28.1331922,16.6731734 C28.5238094,15.9371916 28.900457,15.195384 29.180025,14.4082065 C29.3082267,14.0471888 29.350489,13.6771677 29.2717997,13.304322 C29.0848905,12.4193432 28.5377789,11.8281215 27.7174652,11.4821094 C27.4007629,11.3486476 27.0631947,11.3188129 26.7183764,11.3578275 C26.2453565,11.4111416 25.810355,11.5730258 25.4105427,11.8200008 C25.0441512,12.0463209 24.6940281,12.2982389 24.3368317,12.5390351 C24.2325021,12.6094733 24.1283493,12.6804411 24.0157087,12.7568815 Z M45.93271,29.6795275 C45.7431484,29.6795275 45.5887759,29.6781152 45.4344034,29.6798805 C44.8689015,29.6857062 44.3026923,29.6765263 43.7382513,29.7038895 C43.1531213,29.7321354 42.9016692,29.5511852 42.8074189,28.9703792 C42.7181198,28.4202906 42.6387232,27.8686132 42.5419973,27.3201134 C42.3080513,25.9934395 42.0670322,24.6680013 41.8277814,23.3425632 C41.7856959,23.1086519 41.7390128,22.8756234 41.6910919,22.624235 C41.4352191,22.624235 41.1956146,22.614702 40.9565406,22.6258238 C39.6550728,22.686729 38.4398979,22.4040936 37.3449674,21.6901789 C36.0861156,20.8696359 35.1093074,19.7864062 34.458043,18.4309568 C33.6041315,16.6535845 33.4593079,14.781765 33.8377238,12.8709309 C34.1218894,11.4351573 34.9335385,10.3503388 36.2208599,9.63589442 C37.2797172,9.04820347 38.4266357,8.82541405 39.627841,8.84430349 C40.3434715,8.85524877 41.04973,8.95146132 41.7545738,9.0699175 C41.9839222,9.10857905 42.1435996,9.21767878 42.2693256,9.40145357 C42.3635759,9.53897572 42.4068992,9.69256272 42.4353688,9.85409388 C42.5685217,10.6112601 42.7046807,11.3678968 42.8390714,12.12471 C43.0869869,13.5204097 43.3350792,14.9161095 43.5819337,16.3119859 C43.8153491,17.6315983 44.0475268,18.9513873 44.2798812,20.2709997 C44.528504,21.680999 44.77695,23.0909983 45.0252191,24.500821 C45.2734882,25.9108203 45.5217574,27.3208195 45.769496,28.7309953 C45.8230755,29.0360509 45.874533,29.341283 45.93271,29.6795275 Z M57.4266515,29.568622 C57.3309865,29.568622 57.2551265,29.5682689 57.1794433,29.568622 C56.5078435,29.57127 55.8357132,29.5601482 55.1648206,29.5811561 C54.5897699,29.5995159 54.4048059,29.465701 54.3102019,28.8912503 C54.2210796,28.3485763 54.1316037,27.8057257 54.0371766,27.2637578 C53.8338222,26.0968496 53.6272849,24.930118 53.421455,23.763563 C53.3493084,23.3552334 53.274863,22.9470804 53.1995335,22.5270994 C53.1187222,22.5228625 53.0497586,22.5161541 52.9806181,22.5159776 C52.6625012,22.5147418 52.3442074,22.5184491 52.0260905,22.5147418 C50.9744832,22.5022077 49.982114,22.2584104 49.0693182,21.7298593 C47.6937587,20.9338549 46.6973223,19.7846005 45.9889419,18.3779554 C45.5332513,17.4732044 45.2745492,16.5096667 45.1834818,15.5014651 C45.100195,14.5762358 45.1039084,13.6536546 45.3180494,12.743784 C45.6633981,11.2765869 46.4674435,10.151871 47.828503,9.45808148 C48.6152191,9.05698992 49.4579903,8.84320387 50.3377189,8.84320387 C51.2913623,8.84302734 52.2450058,8.89775374 53.1984725,8.93005997 C53.2545276,8.93182534 53.3100521,8.94683096 53.3657535,8.95689356 C53.5763579,8.99467243 53.7319682,9.1106571 53.8133099,9.30608331 C53.8697187,9.44131049 53.9126883,9.5853645 53.9393896,9.72959505 C54.0384144,10.2632657 54.1268293,10.7992314 54.2216101,11.3337848 C54.465989,12.7155382 54.7114288,14.097115 54.9566919,15.4786919 C55.2178696,16.9506555 55.4802851,18.4224427 55.7400482,19.8945829 C56.0037015,21.3875545 56.2652329,22.8808791 56.5262338,24.3742037 C56.7776859,25.8122723 57.0273696,27.250341 57.2774071,28.6884096 C57.3267426,28.9719276 57.3736025,29.2557988 57.4266515,29.568622 Z M59.0543704,29.6353689 C59.0510107,29.5776413 59.0457058,29.5426871 59.0472972,29.5082624 C59.0764742,28.9018585 59.1063584,28.2956312 59.1362427,27.6895805 C59.1885843,26.6252402 59.2414564,25.5609 59.2932676,24.4965597 C59.3263348,23.8198942 59.3569263,23.1428757 59.3899935,22.4662102 C59.4561279,21.1128792 59.5236769,19.7595483 59.5898113,18.4062173 C59.6232321,17.7224904 59.6536469,17.0385869 59.6874214,16.3548599 C59.7517874,15.0507827 59.8186291,13.746882 59.8822879,12.4429814 C59.9318002,11.4278949 59.9770687,10.4126319 60.0258737,9.39754537 C60.0336543,9.2368969 60.0502763,9.07677804 60.0633617,8.90783234 C60.1162338,8.90147701 60.1577888,8.88876637 60.1975755,8.89300325 C60.5448694,8.92954636 60.8870352,8.88611831 61.2323839,8.85116403 C61.6944404,8.80402871 62.0880637,8.96520679 62.3480036,9.36153187 C62.4940651,9.58414475 62.6192606,9.82494092 62.7202305,10.0713863 C65.0015126,15.6391798 67.2792581,21.2082091 69.5541744,26.7784741 C69.9142,27.6595692 70.2581341,28.5471962 70.6082573,29.4325281 C70.6384952,29.5091451 70.6588306,29.5896458 70.6888917,29.684093 C70.6087877,29.6897422 70.5536168,29.6966271 70.4986227,29.6969802 C69.7775105,29.7022763 69.0563983,29.7068663 68.3352861,29.7107501 C68.2859506,29.7111031 68.2364382,29.7068663 68.1872795,29.7035121 C67.9471446,29.6874472 67.7742049,29.5659899 67.6654546,29.3571469 C67.6104605,29.2512248 67.5708506,29.1370055 67.5271736,29.0256108 C67.126654,28.0008148 66.7300246,26.9746065 66.3224317,25.9528116 C66.2610718,25.798695 66.1588641,25.6574656 66.0580711,25.5232976 C65.95215,25.3822447 65.8060885,25.3142781 65.6181183,25.313925 C64.4658949,25.311277 63.3136715,25.3003317 62.1612712,25.2932702 C62.1351004,25.2930937 62.1085759,25.3038624 62.0594172,25.3146312 L62.0594172,29.6353689 L59.0543704,29.6353689 Z M80.0854525,8.93472101 C80.4953442,11.262535 80.8990468,13.5543355 81.3018652,15.8464891 C81.7037995,18.1317577 82.1060875,20.4166733 82.5053693,22.7024715 C82.9053585,24.9910943 83.3134818,27.2781283 83.710288,29.5814037 L80.8081562,29.5814037 C80.5720883,28.2533175 80.3379656,26.9351174 80.103666,25.6170937 C79.8704274,24.3047193 79.6368352,22.9923449 79.4034197,21.680147 C79.169297,20.3654776 78.9410096,19.0499255 78.6789478,17.7373745 C78.6251915,17.8304094 78.5921243,17.9225616 78.5610022,18.0152434 C77.358736,21.6001758 76.2760067,25.2211217 75.2502166,28.8597213 C75.2139665,28.9882401 75.1720578,29.117112 75.1151186,29.2373335 C75.0079597,29.4631241 74.8251176,29.599587 74.5734887,29.6287156 C74.4123967,29.6472519 74.24989,29.6610218 74.087737,29.6627872 C73.6369977,29.6672006 73.482802,29.5390349 73.389259,29.0959276 C73.3864298,29.0821577 73.3836005,29.0682113 73.3811249,29.0544414 C72.9998797,26.9158748 72.6189881,24.7774848 72.2375661,22.6390948 C71.8635709,20.5423674 71.488338,18.4459932 71.1157574,16.3490893 C70.6975548,13.9951478 70.2816509,11.6408533 69.8653934,9.28655882 C69.8547836,9.22530056 69.8540763,9.16227692 69.8475336,9.08636611 L72.7300373,9.08636611 C72.9618613,10.3639628 73.1928011,11.6323796 73.4223262,12.9009729 C73.6520282,14.1708019 73.8773095,15.4415137 74.1098408,16.7109897 C74.3413111,17.9744634 74.5611106,19.2400556 74.8040748,20.5169461 C75.0578257,20.3622999 75.128204,20.1333317 75.197875,19.9017155 C76.1918356,16.599595 77.1857963,13.2974745 78.1822327,9.99623668 C78.2595073,9.73990527 78.3466844,9.48622192 78.4423494,9.2360693 C78.5572888,8.93525062 78.7908811,8.79455081 79.1074065,8.8194425 C79.4297674,8.84504033 79.7505368,8.89411755 80.0854525,8.93472101 Z M52.8290749,19.8333339 C52.7609954,19.4385977 52.7010501,19.0855241 52.638806,18.7329802 C52.4186528,17.4836294 52.1999142,16.2342786 51.9760476,14.9858104 C51.8043458,14.028628 51.6275159,13.0725048 51.4483873,12.1165581 C51.3757102,11.7287068 51.071386,11.4894995 50.6669761,11.4912649 C50.0963461,11.4937364 49.6059969,11.6999313 49.1902698,12.0842519 C48.8604821,12.3891309 48.6313106,12.7618001 48.52592,13.195551 C48.2376873,14.3820547 48.2085104,15.5678522 48.5869263,16.7439402 C48.8369638,17.5212317 49.2445566,18.2095486 49.7969731,18.8090675 C50.4271948,19.4933241 51.2140877,19.8411015 52.1461579,19.8516937 C52.363305,19.8543418 52.5809826,19.8405719 52.8290749,19.8333339 Z M91.4577351,8.85916327 C91.8485291,8.85916327 92.2163352,8.84645262 92.5827267,8.86304708 C92.8962461,8.87717002 93.0239172,9.00198153 93.0776735,9.31321587 C93.2069361,10.0638503 93.3241744,10.8166031 93.4553821,11.5668844 C93.7420233,13.206558 94.0336158,14.845349 94.3246778,16.4843165 C94.5847945,17.9495717 94.8498625,19.4141209 95.1073268,20.8799058 C95.357541,22.304028 95.6003284,23.7295625 95.8471829,25.1542143 C96.0940374,26.5790427 96.3419529,28.003518 96.5879232,29.4283463 C96.5969416,29.4807777 96.5889842,29.5362103 96.5889842,29.5882886 C96.3180809,29.6318932 93.8751762,29.6193591 93.7149684,29.5722238 C93.0124233,25.6163876 92.3089941,21.6552553 91.5993758,17.6588157 C91.5429671,17.7239577 91.5134365,17.7532628 91.4893876,17.7864518 C91.3337773,18.0016501 91.2490758,18.2484485 91.175161,18.4994838 C90.2666091,21.5846406 89.3591182,24.6699739 88.4495053,27.7549542 C88.3140537,28.2148325 88.1817849,28.6764762 88.026882,29.1298226 C87.8739241,29.5771668 87.6857771,29.691033 87.2104585,29.659433 C86.9991468,29.6454866 86.7897802,29.6048831 86.5786453,29.5884652 C86.4209131,29.5761076 86.3843093,29.5566885 86.3531872,29.3776803 C86.0888266,27.8629947 85.8163318,26.3497214 85.5457821,24.8359185 C85.108305,22.3848818 84.6710047,19.9336686 84.2324666,17.4828085 C83.771648,14.9069603 83.3094147,12.3312887 82.8482424,9.75544051 C82.8088094,9.53494607 82.7741507,9.31356895 82.7356018,9.08089347 L85.6306604,9.08089347 C85.6400324,9.12026117 85.6479897,9.14709476 85.6531178,9.17445796 C85.812972,10.0559061 85.9726494,10.9373543 86.1325036,11.8186259 C86.38148,13.1929647 86.6302797,14.567127 86.8790793,15.9412893 C87.1469765,17.4194318 87.4145201,18.8977508 87.682771,20.3760698 C87.7126553,20.5407786 87.7146004,20.5404255 87.922906,20.52083 C89.0970563,16.6469068 90.2731518,12.7675111 91.4577351,8.85916327 L91.4577351,8.85916327 Z M97.3902004,17.6660537 L101.976283,17.6660537 C101.622446,15.7049066 101.272854,13.76565 100.920255,11.8113879 L95.8127011,11.8113879 C95.6556762,10.8898659 95.5021878,9.98546793 95.359663,9.07012472 L103.430532,9.07012472 C104.640048,15.913573 105.847443,22.7446638 107.059965,29.6040004 C106.142572,29.6947403 105.253294,29.6437212 104.365785,29.6520184 C103.467843,29.6603156 102.569724,29.6537838 101.671782,29.6537838 L98.9905107,29.6537838 C98.8287113,28.7071936 98.6713328,27.7860246 98.5082956,26.8318433 L101.050932,26.8318433 L103.590032,26.8318433 C103.589856,26.5583879 102.489797,20.4581594 102.412699,20.3049255 L97.891513,20.3049255 C97.7249393,19.4282438 97.5608412,18.5642728 97.3902004,17.6660537 Z M113.818739,20.2311162 C113.75172,19.8434414 113.689653,19.483836 113.627409,19.1240541 C113.408847,17.8598742 113.193822,16.5953412 112.970839,15.332044 C112.807979,14.4091097 112.636808,13.4874112 112.463691,12.5662423 C112.437874,12.4290732 112.389423,12.2941991 112.336197,12.1646211 C112.252556,11.9601915 112.092879,11.8532102 111.869897,11.8694516 C110.711484,11.9540127 109.795859,12.5238734 109.525486,13.6560038 C109.269436,14.7277586 109.222577,15.8051626 109.502321,16.8808012 C109.752889,17.844692 110.236873,18.6812998 110.944015,19.3810916 C111.655756,20.0852968 112.524344,20.3636953 113.517597,20.2653644 C113.612732,20.2560079 113.707689,20.2438269 113.818739,20.2311162 Z M118.178143,29.6532542 C117.542086,29.6557257 116.905675,29.6514888 116.269618,29.6631402 C115.707299,29.6733794 115.518975,29.5247354 115.433036,28.9686445 C115.387768,28.67577 115.343383,28.3828955 115.292456,28.0909037 C115.012358,26.4858312 114.730845,24.8809354 114.448624,23.276216 C114.408837,23.0498959 114.363569,22.8246349 114.319892,22.5942544 C113.957921,22.5942544 113.619115,22.5909002 113.280309,22.5949606 C112.027646,22.6097897 110.872947,22.282667 109.841499,21.5728126 C108.587245,20.7093712 107.620869,19.5931292 106.981806,18.2059031 C106.560244,17.2907365 106.342036,16.325963 106.291816,15.3212921 C106.241243,14.312561 106.320816,13.3158343 106.616122,12.3475301 C107.073581,10.847497 108.028816,9.79798587 109.511711,9.24913302 C110.200817,8.99403737 110.917685,8.85651522 111.650468,8.87363929 C112.51941,8.89394102 113.387114,8.96331997 114.255526,9.00462958 C114.820144,9.03163971 114.947815,9.30332981 115.044541,9.67900008 C115.053382,9.71307168 115.056919,9.74837904 115.062931,9.78315678 C115.168322,10.3948567 115.272298,11.0067332 115.379633,11.6180801 C115.611457,12.9380456 115.844519,14.2578346 116.077758,15.5776235 C116.323374,16.9667915 116.569875,18.3557829 116.815669,19.7449508 C117.077731,21.224329 117.339969,22.7035307 117.601147,24.1830855 C117.881953,25.7736819 118.161875,27.3646313 118.441443,28.9555808 C118.480168,29.1760752 118.514473,29.3974524 118.556559,29.6532542 C118.40254,29.6532542 118.29043,29.6529011 118.178143,29.6532542 Z M62.5395103,15.5516011 C62.469132,15.5588391 62.4081257,15.5650179 62.3379243,15.5722559 L62.3379243,22.2231026 C62.5027297,22.2665307 64.7371519,22.2790648 65.0303359,22.2411094 C65.0216712,22.0795782 62.7881331,16.0759154 62.5395103,15.5516011 Z M41.3351334,19.8395338 C41.2934015,19.5900873 41.2601575,19.3824801 41.2237306,19.175579 C40.9889005,17.8420201 40.7560156,16.5081082 40.5172952,15.175079 C40.3332154,14.1478115 40.1436537,13.1212501 39.9525006,12.0952183 C39.884598,11.7310229 39.5666579,11.4881083 39.1719736,11.491286 C38.5521849,11.4958759 38.0319514,11.7342006 37.6047305,12.1766018 C37.3299369,12.4613556 37.1340094,12.7962459 37.0392286,13.1803899 C36.745691,14.3677763 36.7159836,15.5541034 37.0901556,16.7316038 C37.3446137,17.5313154 37.7649383,18.2379921 38.3405196,18.8473971 C38.9348447,19.4763976 39.6702802,19.8146421 40.5390453,19.8460657 C40.791912,19.855069 41.0453092,19.8427115 41.3351334,19.8395338 Z" id="Combined-Shape" fill="#FFFFFF"></path>
                    <text id="ACCELERATOR" transform="translate(70.967626, 39.650000) scale(-1, 1) translate(-70.967626, -39.650000) " font-family="SourceSansPro-BoldIt, Source Sans Pro" font-size="15.6" font-style="italic" font-weight="bold" fill="#E2433B">
                        <tspan x="22.8572259" y="44.9">ACCELERATOR</tspan>
                    </text>
                </g>
                <path d="M129.823909,0.00311438705 C127.8694,0.0832725093 126.309353,1.70066832 126.309353,3.68416736 C126.309353,5.66766641 127.8694,7.28506222 129.823909,7.36522034 L129.823909,7.36833473 L148.172463,7.36833473 L148.172463,7.36749037 C148.198826,7.36805233 148.225257,7.36833473 148.251755,7.36833473 C150.276823,7.36833473 151.918465,5.71887681 151.918465,3.68416736 C151.918465,1.64945791 150.276823,0 148.251755,0 C148.225257,0 148.198826,0.000282397907 148.172463,0.000844361687 L148.172463,0 L129.823909,0 L129.823909,0.00311438705 Z" id="Combined-Shape" fill="#032B43"></path>
                <path d="M139.330935,14.7384166 C137.396188,14.8399033 135.858513,16.4482755 135.858513,18.4175007 C135.858513,20.3867259 137.396188,21.9950981 139.330935,22.0965848 L139.330935,22.1016681 L177.485444,22.1016681 L177.485444,22.096408 C179.41862,21.9932457 180.954524,20.385592 180.954524,18.4175007 C180.954524,16.4494094 179.41862,14.8417556 177.485444,14.7385934 L177.485444,14.7333333 L139.330935,14.7333333 L139.330935,14.7384166 Z" id="Combined-Shape" fill="#032B43"></path>
                <path d="M158.113542,29.465843 C158.139905,29.465281 158.166337,29.4649986 158.192834,29.4649986 C160.217902,29.4649986 161.859545,31.1144565 161.859545,33.149166 C161.859545,35.1838754 160.217902,36.8333333 158.192834,36.8333333 C158.166337,36.8333333 158.139905,36.8330509 158.113542,36.832489 L158.113542,36.8333333 L129.781775,36.8333333 L129.781775,29.4649986 L158.113542,29.4649986 L158.113542,29.465843 Z" id="Combined-Shape" fill="#032B43"></path>
                <path d="M144.976963,44.2049095 C145.040202,44.2016498 145.103864,44.2 145.16791,44.2 C147.192978,44.2 148.83462,45.8494579 148.83462,47.8841674 C148.83462,49.9188768 147.192978,51.5683347 145.16791,51.5683347 C145.103864,51.5683347 145.040202,51.5666849 144.976963,51.5634252 L144.976963,51.5683347 L120.232614,51.5683347 L120.232614,44.2 L144.976963,44.2 L144.976963,44.2049095 Z" id="Combined-Shape" fill="#032B43"></path>
                <ellipse id="Oval-16" fill="#032B43" cx="161.227862" cy="3.68416736" rx="3.66671061" ry="3.68416736"></ellipse>
                <ellipse id="Oval-16" fill="#032B43" cx="155.585176" cy="47.8841674" rx="3.66671061" ry="3.68416736"></ellipse>
            </g>
        </g>
    </g>
</svg>