<?xml version="1.0" encoding="UTF-8" standalone="no"?>
<svg width="412px" height="120px" viewBox="0 0 412 120" version="1.1" xmlns="http://www.w3.org/2000/svg" xmlns:xlink="http://www.w3.org/1999/xlink">
    <!-- Generator: Sketch 3.7.1 (28215) - http://www.bohemiancoding.com/sketch -->
    <title>PALogo</title>
    <desc>Created with Sketch.</desc>
    <defs></defs>
    <g id="Page-1" stroke="none" stroke-width="1" fill="none" fill-rule="evenodd">
        <g id="Artboard-1" transform="translate(-74.000000, -133.000000)">
            <g id="PALogo" transform="translate(282.500000, 193.000000) scale(-1, 1) translate(-282.500000, -193.000000) translate(74.000000, 133.000000)">
                <g id="penn-apps-accel-logo-1">
                    <path d="M5.98045415,59.5 C5.98045415,14.4853497 5.98437962,57.9949218 5.98437962,57.9949218 C11.755209,25.9652109 43.0736671,0 75.9331469,0 L311.997487,0 C316.417153,0 320,3.57762709 320,7.99270619 L320,111.007294 C320,115.421544 316.419441,119 311.997487,119 L75.9331469,119 C43.0723389,119 8.48419287,93.7275109 5.98437962,61.0050782 C5.98437962,61.0050782 5.98045415,104.51465 5.98045415,59.5 Z" id="Combined-Shape" fill="#032B43"></path>
                    <path d="M270.809583,29.4389573 C270.882506,29.3118508 270.945245,29.2185579 270.99291,29.1179319 C271.502965,28.0448599 272.01465,26.9721953 272.516965,25.8958641 C272.689292,25.5271738 272.852249,25.1531874 272.994837,24.7726828 C273.293863,23.9778599 273.131721,23.391622 272.458301,22.8880847 C269.337266,20.5549475 265.847542,19.5910567 261.978534,20.1589619 C258.873795,20.6140194 256.312926,22.0574113 254.456438,24.6125775 C252.8452,26.8296079 252.019415,29.3460718 251.891494,32.0813055 C251.796572,34.127231 252.196224,36.0973815 252.896939,38.012534 C253.59521,39.9207608 254.599025,41.6701045 255.714873,43.3575245 C257.090231,45.4360414 258.437478,47.5300392 259.639286,49.715293 C260.502958,51.2857913 261.338113,52.8668819 261.96672,54.5506354 C262.448665,55.8400329 262.534218,57.1465409 262.235192,58.4860476 C261.457887,61.975365 258.231745,63.9357381 254.820647,62.9787729 C253.711317,62.667525 252.704242,62.1305816 251.777424,61.4583838 C250.697019,60.6745605 249.645946,59.8495906 248.581022,59.0433607 C248.441286,58.9374386 248.29707,58.8368126 248.117817,58.7068544 C247.128668,60.767446 246.16111,62.7844467 245.166665,64.8568527 C247.070003,65.9303321 248.924047,66.9781458 250.780535,68.022293 C250.9219,68.1017345 251.074265,68.1628434 251.222963,68.2284336 C253.677503,69.31332 256.236336,69.7663406 258.896609,69.3357266 C262.439703,68.7621179 265.230749,66.9512579 267.063608,63.8648518 C269.360488,59.9966593 269.756066,55.8404403 268.546925,51.5249308 C268.08983,49.8945457 267.273416,48.4250807 266.380411,47.0028732 C264.622105,44.2032715 262.872354,41.4000032 261.323447,38.4765541 C260.423517,36.7781345 259.555771,35.0662709 258.911683,33.2497074 C258.616323,32.4165896 258.518957,31.5626948 258.700246,30.7022817 C259.13086,28.6600227 260.391333,27.295665 262.281227,26.4971755 C263.010867,26.1891867 263.788579,26.1203374 264.582995,26.2103712 C265.67277,26.3334037 266.674956,26.7069827 267.59607,27.2769249 C268.440188,27.7992022 269.246825,28.3805514 270.069758,28.9362349 C270.31012,29.0987845 270.550074,29.2625563 270.809583,29.4389573 Z M220.315718,68.4912172 C220.752443,68.4912172 221.108097,68.4879581 221.46375,68.492032 C222.766592,68.5054759 224.071063,68.4842915 225.37146,68.5474374 C226.719522,68.6126202 227.298834,68.1950428 227.515974,66.8547212 C227.721708,65.585286 227.904627,64.3121842 228.127471,63.0464155 C228.666451,59.9848603 229.221727,56.9261569 229.772929,53.8674535 C229.869889,53.3276583 229.97744,52.7899001 230.087844,52.2097731 C230.677341,52.2097731 231.229358,52.1877739 231.780152,52.2134396 C234.778562,52.3539901 237.578164,51.7017545 240.100738,50.054259 C243.000966,48.1606983 245.251403,45.6609375 246.75183,42.5329773 C248.719128,38.4313489 249.052783,34.1117655 248.180963,29.7021483 C247.526283,26.3888245 245.656351,23.8853972 242.690533,22.2366794 C240.251066,20.8804695 237.608718,20.3663401 234.8413,20.4099311 C233.192583,20.4351895 231.565457,20.6572184 229.94159,20.9305788 C229.413202,21.0197978 229.045326,21.2715664 228.75567,21.6956621 C228.53853,22.0130209 228.438719,22.3674524 228.373128,22.7402166 C228.066362,24.4875234 227.75267,26.2336079 227.443051,27.9800999 C226.871887,31.2009456 226.300315,34.4217912 225.731595,37.6430443 C225.193837,40.6883038 224.65893,43.7339706 224.123617,46.7792301 C223.550823,50.0330746 222.978436,53.286919 222.406457,56.5403561 C221.834478,59.7942006 221.262498,63.0480451 220.691741,66.3022969 C220.568302,67.0062713 220.44975,67.710653 220.315718,68.4912172 Z M193.835201,68.2352815 C194.0556,68.2352815 194.230372,68.2344667 194.404736,68.2352815 C195.952013,68.2413923 197.500512,68.2157266 199.046159,68.2642063 C200.371,68.3065752 200.797133,67.9977716 201.015088,66.6721162 C201.220414,65.4197914 201.426554,64.1670592 201.644102,62.916364 C202.112603,60.2234991 202.588438,57.5310416 203.062643,54.8389915 C203.228859,53.8966925 203.400371,52.9548009 203.57392,51.985614 C203.760099,51.9758365 203.918982,51.9603556 204.078272,51.9599482 C204.811172,51.9570965 205.544478,51.9656517 206.277378,51.9570965 C208.700141,51.9281716 210.986428,51.3655625 213.089389,50.1458291 C216.258496,48.308896 218.554153,45.6567704 220.186167,42.4106663 C221.236018,40.3227794 221.832033,38.0992308 222.04184,35.7726118 C222.233722,33.6374673 222.225167,31.5084337 221.731815,29.4087324 C220.936177,26.0228928 219.083763,23.4273947 215.948062,21.8263419 C214.135573,20.900746 212.19394,20.4073936 210.167162,20.4073936 C207.970094,20.4069862 205.773026,20.5332779 203.576365,20.6078307 C203.447221,20.6119046 203.3193,20.646533 203.190971,20.6697544 C202.705767,20.7569364 202.347261,21.0245933 202.159861,21.4755769 C202.029903,21.7876396 201.930906,22.1200719 201.86939,22.4529117 C201.64125,23.6844594 201.437554,24.9213032 201.219191,26.154888 C200.656175,29.3435496 200.090714,32.5318039 199.52566,35.7200581 C198.923942,39.1168974 198.319371,42.5133293 197.720911,45.9105759 C197.113489,49.3558949 196.510955,52.8020287 195.909644,56.2481624 C195.330332,59.5667823 194.755093,62.8854022 194.17904,66.2040221 C194.065378,66.8582946 193.957419,67.5133818 193.835201,68.2352815 Z M190.085152,68.3893128 C190.092893,68.2560954 190.105115,68.1754317 190.101448,68.0959901 C190.034228,66.6965966 189.965379,65.2976106 189.89653,63.8990319 C189.775941,61.442862 189.654131,58.9866922 189.534765,56.5305224 C189.458583,54.9689867 189.388104,53.4066362 189.311921,51.8451004 C189.159556,48.722029 189.003932,45.5989575 188.851568,42.4758861 C188.77457,40.8980547 188.704499,39.3198158 188.626687,37.7419844 C188.478396,34.7325755 188.324402,31.7235739 188.17774,28.7145724 C188.06367,26.3720651 187.959378,24.0291504 187.846938,21.6866432 C187.829012,21.3159159 187.790717,20.9464109 187.76057,20.5565362 C187.63876,20.54187 187.543023,20.5125378 187.451359,20.5223152 C186.65124,20.6066455 185.862936,20.5064269 185.067298,20.4257632 C184.002781,20.3169893 183.095925,20.6889388 182.497058,21.6035351 C182.160552,22.1172571 181.872118,22.6729406 181.639497,23.2416606 C176.383725,36.0904149 171.136102,48.942021 165.894996,61.7964788 C165.065545,63.8297751 164.273166,65.878145 163.466529,67.9212187 C163.396865,68.0980271 163.350015,68.2837981 163.280758,68.5017531 C163.465307,68.5147897 163.592413,68.530678 163.719113,68.5314928 C165.380459,68.5437146 167.041806,68.5543068 168.703153,68.5632694 C168.816816,68.5640842 168.930886,68.5543068 169.044141,68.5465663 C169.59738,68.5094936 169.99581,68.2292075 170.246356,67.7472621 C170.373055,67.5028265 170.464311,67.2392435 170.564937,66.9821788 C171.487681,64.617265 172.401463,62.2490919 173.340503,59.8911037 C173.481868,59.53545 173.717341,59.209536 173.949555,58.8999176 C174.193583,58.5744109 174.530089,58.4175648 174.963148,58.41675 C177.617718,58.4106391 180.272287,58.3853808 182.927265,58.3690851 C182.987559,58.3686777 183.048668,58.3935286 183.161923,58.4183796 L183.161923,68.3893128 L190.085152,68.3893128 Z M141.632328,20.618587 C140.687992,25.9904654 139.757915,31.2792358 138.829874,36.5688209 C137.903871,41.8425178 136.977053,47.1153998 136.057161,52.3903188 C135.135639,57.6717561 134.195376,62.9495269 133.281188,68.2647778 L139.967314,68.2647778 C140.511184,65.1999635 141.050571,62.1579631 141.590366,59.1163702 C142.127717,56.0878138 142.665883,53.0592574 143.203641,50.0311084 C143.743029,46.997256 144.268973,43.9613665 144.872728,40.9324027 C144.996576,41.1470986 145.072758,41.3597576 145.144459,41.5736387 C147.914321,49.8465596 150.408786,58.2025886 152.77207,66.5993569 C152.855586,66.8959387 152.952138,67.1933353 153.083318,67.4707696 C153.330198,67.9918247 153.751442,68.3067392 154.331162,68.373959 C154.702296,68.4167352 155.07669,68.4485118 155.450269,68.4525857 C156.488713,68.4627706 156.843959,68.1670035 157.05947,67.1444482 C157.065988,67.1126716 157.072506,67.0804876 157.07821,67.0487109 C157.956548,62.1135573 158.834072,57.1788111 159.712818,52.2440649 C160.574453,47.4054633 161.43894,42.5676765 162.297316,37.7286676 C163.260799,32.296495 164.218987,26.8635077 165.177989,21.4305204 C165.202432,21.2891551 165.204062,21.143716 165.219136,20.9685372 L158.578229,20.9685372 C158.044138,23.9168372 157.512083,26.8439528 156.983287,29.7714759 C156.454084,32.7018506 155.935066,35.6342624 155.399345,38.5638223 C154.866068,41.479531 154.359679,44.4001283 153.799922,47.3467988 C153.215313,46.9899229 153.053171,46.4615347 152.892659,45.9270357 C150.602705,38.3067576 148.312751,30.6864796 146.017094,23.0682385 C145.839064,22.4767045 145.638219,21.8912813 145.41782,21.3140061 C145.153014,20.6198091 144.614849,20.2951173 143.885616,20.3525596 C143.14294,20.4116315 142.403929,20.5248867 141.632328,20.618587 Z M204.427408,45.7692321 C204.584254,44.8583023 204.72236,44.0435172 204.865762,43.2299542 C205.372966,40.346837 205.876911,37.4637198 206.39267,34.5826395 C206.788248,32.373757 207.19564,30.1673188 207.608329,27.961288 C207.775767,27.0662465 208.47689,26.5142296 209.408597,26.5183035 C210.723253,26.524007 211.852952,26.9998416 212.810732,27.8867352 C213.570519,28.5903022 214.0985,29.4503079 214.341306,30.4512714 C215.005356,33.1893569 215.072576,35.9258128 214.200756,38.6398621 C213.624703,40.4336116 212.685663,42.0220352 211.412968,43.4055404 C209.961021,44.984594 208.148124,45.7871574 206.000758,45.8116009 C205.50048,45.8177118 204.99898,45.7859352 204.427408,45.7692321 Z M115.432097,20.4442229 C114.531759,20.4442229 113.684383,20.4148907 112.840265,20.4531856 C112.117958,20.485777 111.823821,20.7738035 111.699973,21.4920366 C111.402169,23.2242698 111.132068,24.9613918 110.829783,26.6928102 C110.1694,30.4766724 109.497609,34.2584976 108.827041,38.0407303 C108.227767,41.4220886 107.617085,44.8018174 107.023922,48.1843979 C106.447461,51.4708338 105.888111,54.7605288 105.319391,58.0481869 C104.750671,61.3362523 104.179507,64.623503 103.612824,67.9115684 C103.592046,68.032564 103.610379,68.1604853 103.610379,68.2806661 C104.234505,68.381292 109.862633,68.3523672 110.231731,68.2435934 C111.850301,59.1147406 113.470909,49.9736661 115.105775,40.7511131 C115.235734,40.9014409 115.303768,40.9690681 115.359174,41.0456579 C115.717679,41.5422694 115.91282,42.1118042 116.08311,42.6911165 C118.176293,49.8107091 120.267032,56.930709 122.362659,64.0498942 C122.674722,65.1111519 122.979452,66.1764834 123.336327,67.2226676 C123.688722,68.2550003 124.122188,68.5177686 125.217259,68.4448453 C125.704093,68.4126613 126.186446,68.318961 126.672873,68.2810735 C127.036267,68.252556 127.120597,68.2077428 127.192298,67.7946467 C127.80135,64.2992185 128.429142,60.8070494 129.052453,57.3136581 C130.060342,51.6574196 131.067824,46.0007737 132.078157,40.3449427 C133.139822,34.4006777 134.204747,28.45682 135.267226,22.512555 C135.358075,22.0037217 135.437924,21.4928514 135.526735,20.955908 L128.856904,20.955908 C128.835312,21.0467565 128.81698,21.1086802 128.805165,21.1718261 C128.436882,23.2059372 128.069007,25.2400483 127.700724,27.273752 C127.127115,30.4453032 126.553914,33.616447 125.980713,36.7875907 C125.363513,40.1986887 124.747128,43.6101941 124.129113,47.0216995 C124.060264,47.4017968 124.055783,47.400982 123.575874,47.3557614 C120.870788,38.4159388 118.16122,29.4634871 115.432097,20.4442229 L115.432097,20.4442229 Z M101.764483,40.7678162 L91.1987571,40.7678162 C92.0139496,36.2420921 92.8193647,31.7668847 93.6317055,27.2570489 L105.398833,27.2570489 C105.760597,25.1304597 106.114214,23.0433875 106.442572,20.9310571 L87.8483606,20.9310571 C85.0617954,36.7236301 82.2801189,52.4876856 79.486628,68.316924 C81.6001807,68.5263238 83.6489579,68.4085873 85.6936613,68.4277348 C87.7624007,68.4468822 89.8315476,68.4318087 91.9002871,68.4318087 L98.0775806,68.4318087 C98.4503449,66.2473698 98.8129242,64.1215953 99.1885402,61.9196385 L93.3306424,61.9196385 L87.4808925,61.9196385 C87.4812999,61.2885874 90.0156891,47.2111371 90.1933122,46.8575203 L100.609525,46.8575203 C100.993289,44.8344088 101.37135,42.8406296 101.764483,40.7678162 Z M63.9153099,46.6871913 C64.0697117,45.7925572 64.2127065,44.9626985 64.3561087,44.1324325 C64.8596459,41.2150943 65.3550353,38.2969413 65.8687573,35.38164 C66.2439658,33.2517917 66.6383219,31.124795 67.0371592,28.9990206 C67.0966385,28.6824766 67.2082641,28.3712287 67.3308892,28.0722025 C67.5235859,27.6004419 67.8914614,27.353562 68.4051834,27.3910421 C71.0740122,27.5861832 73.1834909,28.9012464 73.8063942,31.5138549 C74.3962986,33.9871353 74.5042576,36.4734521 73.8597626,38.9556951 C73.2824873,41.1800585 72.1674538,43.1106919 70.5382909,44.725596 C68.8985358,46.350685 66.8974235,46.9931431 64.6090995,46.7662254 C64.3899223,46.7446336 64.1711524,46.7165235 63.9153099,46.6871913 Z M53.8718201,68.4305865 C55.3372112,68.43629 56.803417,68.4265126 58.2688081,68.4534005 C59.5643165,68.4770293 59.9981896,68.1340048 60.1961824,66.8507182 C60.3004749,66.1748539 60.4027304,65.4989896 60.5200595,64.8251623 C61.1653693,61.121149 61.8139383,57.4175432 62.4641368,53.7143447 C62.5558002,53.1920674 62.6600927,52.6722345 62.7607186,52.1405872 C63.5946512,52.1405872 64.3752154,52.1328467 65.1557795,52.1422167 C68.0417485,52.1764377 70.702022,51.4215393 73.0783429,49.7834138 C75.9679784,47.7908567 78.1943788,45.2149135 79.6666956,42.0136226 C80.6379194,39.9016995 81.1406419,37.6752991 81.2563414,35.356828 C81.3728556,33.0289869 81.189529,30.7288484 80.5091834,28.4943001 C79.4552588,25.0326855 77.2545241,22.6107366 73.83813,21.3441531 C72.2505212,20.7554709 70.5989517,20.438112 68.9107169,20.4776291 C66.9087898,20.5244793 64.9097144,20.6845846 62.9090095,20.7799144 C61.608205,20.8422455 61.3140676,21.4692226 61.0912239,22.336154 C61.0708542,22.4147808 61.0627064,22.4962593 61.048855,22.5765157 C60.8060491,23.9881309 60.5665022,25.4001536 60.3192149,26.810954 C59.7851233,29.8570283 59.2481799,32.9026952 58.7108291,35.948362 C58.1449608,39.1541342 57.5770555,42.3594989 57.0107799,45.5652711 C56.4070241,48.9792208 55.8028609,52.3927632 55.2011421,55.8071203 C54.5542027,59.4777274 53.9093002,63.1491492 53.2652126,66.8205711 C53.1759936,67.3294044 53.0969594,67.8402747 53,68.4305865 C53.3548389,68.4305865 53.6131258,68.4297718 53.8718201,68.4305865 Z M182.055852,35.8883103 C182.217994,35.9050134 182.358545,35.9192721 182.52028,35.9359752 L182.52028,51.284083 C182.14059,51.3843015 176.992777,51.4132264 176.31732,51.325637 C176.337283,50.9528728 181.483058,37.0982662 182.055852,35.8883103 Z M230.907925,45.7835396 C231.00407,45.2078939 231.080659,44.7288002 231.164582,44.2513361 C231.7056,41.1738926 232.242136,38.0956343 232.792116,35.019413 C233.216211,32.6487957 233.652936,30.2798079 234.093328,27.9120422 C234.249766,27.0715914 234.982258,26.5110192 235.891558,26.5183522 C237.319469,26.5289444 238.518018,27.0789244 239.502279,28.0998502 C240.135367,28.7569744 240.586758,29.5297981 240.80512,30.4162844 C241.481392,33.1564068 241.549834,35.8940849 240.687791,38.6113933 C240.101553,40.4568817 239.133181,42.0876741 237.807118,43.4939933 C236.437872,44.945533 234.743526,45.7260972 232.742006,45.7986131 C232.159435,45.8193901 231.575641,45.7908726 230.907925,45.7835396 Z" id="Fill-1" fill="#FFFFFF" transform="translate(163.069296, 44.748479) scale(-1, 1) translate(-163.069296, -44.748479) "></path>
                    <text id="ACCELERATOR" transform="translate(163.500000, 91.500000) scale(-1, 1) translate(-163.500000, -91.500000) " font-family="SourceSansPro-BoldIt, Source Sans Pro" font-size="36" font-style="italic" font-weight="bold" fill="#E2433B">
                        <tspan x="52.476" y="104">ACCELERATOR</tspan>
                    </text>
                </g>
                <path d="M299.097071,0.00718704704 C294.594142,0.192167329 291,3.9246192 291,8.50192469 C291,13.0792302 294.594142,16.811682 299.097071,16.9966623 L299.097071,17.0038494 L341.369707,17.0038494 L341.369707,17.0019008 C341.430444,17.0031977 341.491339,17.0038494 341.552385,17.0038494 C346.217874,17.0038494 350,13.197408 350,8.50192469 C350,3.80644134 346.217874,0 341.552385,0 C341.491339,0 341.430444,0.000651687477 341.369707,0.00194852697 L341.369707,0 L299.097071,0 L299.097071,0.00718704704 Z" id="Combined-Shape" fill="#032B43"></path>
                <path d="M321,34.0117307 C316.542599,34.2459308 313,37.9575589 313,42.5019247 C313,47.0462905 316.542599,50.7579186 321,50.9921187 L321,51.0038494 L408.902929,51.0038494 L408.902929,50.9917107 C413.35671,50.753644 416.89523,47.0436739 416.89523,42.5019247 C416.89523,37.9601755 413.35671,34.2502053 408.902929,34.0121387 L408.902929,34 L321,34 L321,34.0117307 Z" id="Combined-Shape" fill="#032B43"></path>
                <path d="M364.272636,67.9980992 C364.333373,67.9968023 364.394268,67.9961506 364.455314,67.9961506 C369.120803,67.9961506 372.902929,71.802592 372.902929,76.4980753 C372.902929,81.1935587 369.120803,85 364.455314,85 C364.394268,85 364.333373,84.9993483 364.272636,84.9980515 L364.272636,85 L299,85 L299,67.9961506 L364.272636,67.9961506 L364.272636,67.9980992 Z" id="Combined-Shape" fill="#032B43"></path>
                <path d="M334.007699,102.01133 C334.153393,102.003807 334.300062,102 334.447615,102 C339.113104,102 342.89523,105.806441 342.89523,110.501925 C342.89523,115.197408 339.113104,119.003849 334.447615,119.003849 C334.300062,119.003849 334.153393,119.000042 334.007699,118.99252 L334.007699,119.003849 L277,119.003849 L277,102 L334.007699,102 L334.007699,102.01133 Z" id="Combined-Shape" fill="#032B43"></path>
                <path d="M307.097071,17.007187 C302.594142,17.1921673 299,20.9246192 299,25.5019247 C299,30.0792302 302.594142,33.811682 307.097071,33.9966623 L307.097071,34.0038494 L349.369707,34.0038494 L349.369707,34.0019008 C349.430444,34.0031977 349.491339,34.0038494 349.552385,34.0038494 C354.217874,34.0038494 358,30.197408 358,25.5019247 C358,20.8064413 354.217874,17 349.552385,17 C349.491339,17 349.430444,17.0006517 349.369707,17.0019485 L349.369707,17 L307.097071,17 L307.097071,17.007187 Z" id="Combined-Shape" fill="#FFFFFF"></path>
                <path d="M299.097071,51.007187 C294.594142,51.1921673 291,54.9246192 291,59.5019247 C291,64.0792302 294.594142,67.811682 299.097071,67.9966623 L299.097071,68.0038494 L341.369707,68.0038494 L341.369707,68.0019008 C341.430444,68.0031977 341.491339,68.0038494 341.552385,68.0038494 C346.217874,68.0038494 350,64.197408 350,59.5019247 C350,54.8064413 346.217874,51 341.552385,51 C341.491339,51 341.430444,51.0006517 341.369707,51.0019485 L341.369707,51 L299.097071,51 L299.097071,51.007187 Z" id="Combined-Shape" fill="#FFFFFF"></path>
                <path d="M314.097071,85.007187 C309.594142,85.1921673 306,88.9246192 306,93.5019247 C306,98.0792302 309.594142,101.811682 314.097071,101.996662 L314.097071,102.003849 L356.369707,102.003849 L356.369707,102.001901 C356.430444,102.003198 356.491339,102.003849 356.552385,102.003849 C361.217874,102.003849 365,98.197408 365,93.5019247 C365,88.8064413 361.217874,85 356.552385,85 C356.491339,85 356.430444,85.0006517 356.369707,85.0019485 L356.369707,85 L314.097071,85 L314.097071,85.007187 Z" id="Combined-Shape" fill="#FFFFFF"></path>
                <ellipse id="Oval-16" fill="#032B43" cx="371.447615" cy="8.50192469" rx="8.44761506" ry="8.50192469"></ellipse>
                <ellipse id="Oval-16" fill="#032B43" cx="358.447615" cy="110.501925" rx="8.44761506" ry="8.50192469"></ellipse>
            </g>
        </g>
    </g>
</svg>